<?xml version="1.0" encoding="utf-8"?>
<!-- Generator: Adobe Illustrator 19.1.0, SVG Export Plug-In . SVG Version: 6.00 Build 0)  -->
<svg version="1.1" id="Layer_1" xmlns="http://www.w3.org/2000/svg" xmlns:xlink="http://www.w3.org/1999/xlink" x="0px" y="0px"
	 viewBox="0 0 43.7 48" style="enable-background:new 0 0 43.7 48;" xml:space="preserve">
<style type="text/css">
	.st0{fill:#BADA55;}
	.st1{fill:none;}
	.st2{fill:#FFFFFF;}
</style>
<polygon class="st0" points="-57.4,-281.2 -104.5,-173.8 -81.7,-173.8 -34.2,-281.2 "/>
<g>
	<polygon class="st1" points="-77.3,-442.1 -54,-442.2 -46.9,-458 -70.3,-458 	"/>
	<polygon class="st1" points="-58.1,-486 -35.7,-486 -46.8,-512 	"/>
	<polygon class="st1" points="-57.1,-545 -101.9,-442.2 -82,-442.4 -37.4,-545 	"/>
	<path d="M-7.1-549h-26.3h-26.4l-48.6,111.2l57.4,0.1l9-20.2h8.7h8.6l9,20.3l57.4-0.1L-7.1-549z M-22.3-517.8l-11.2,25.9l0-0.1
		l0,0.1l-11.2-25.9l11.3-26.1L-22.3-517.8z M-20.2-512l11.3,26h-22.4L-20.2-512z M-33.5-491.8L-33.5-491.8L-33.5-491.8L-33.5-491.8z
		 M-35.7-486h-22.4l11.3-26L-35.7-486z M-101.9-442.2L-57.1-545h19.7L-82-442.4L-101.9-442.2z M-54-442.1l-23.3,0.1l6.9-15.9h23.5
		L-54-442.1z M-33.5-462H-45h-23.5l8.5-20h26.5H-7l8.5,20h-23.5H-33.5z M-13.1-442.1l-7.1-15.9H3.3l6.9,15.9L-13.1-442.1z
		 M-29.6-545H-10l44.8,102.8L15-442.4L-29.6-545z"/>
</g>
<polygon class="st1" points="-57.1,-545 -37.4,-545 -82,-442.4 -101.9,-442.2 "/>
<g>
	<path d="M-59.8-395l-49,112h29.9l47.8-112H-59.8z M-82.1-287.6l-20,0.2L-57-391h19.8L-82.1-287.6z"/>
</g>
<g>
	<path d="M-59.8-283l-49,112h29.9l47.8-112H-59.8z M-82.1-175.6l-20,0.2L-57-279h19.8L-82.1-175.6z"/>
</g>
<g>
	<polygon class="st0" points="36.9,-281.2 84,-173.8 61.3,-173.8 13.8,-281.2 	"/>
	<g>
		<path d="M10.6-395l47.8,112h29.9l-49-112H10.6z M16.7-391h19.8l45.2,103.5l-20-0.2L16.7-391z"/>
	</g>
	<g>
		<path d="M10.6-283l47.8,112h29.9l-49-112H10.6z M16.7-279h19.8l45.2,103.5l-20-0.2L16.7-279z"/>
	</g>
</g>
<g>
	<path d="M-339.9-395l-49,112h29.9l47.8-112H-339.9z M-362.2-287.6l-20,0.2l45.2-103.5h19.8L-362.2-287.6z"/>
</g>
<g>
	<polygon class="st0" points="-243.2,-281.2 -196.1,-173.8 -218.8,-173.8 -266.3,-281.2 	"/>
	<g>
		<path d="M-311.2-395l47.8,112h29.9l-49-112H-311.2z M-305.1-391h19.8l45.2,103.5l-20-0.2L-305.1-391z"/>
	</g>
	<g>
		<path d="M-269.5-283l47.8,112h29.9l-49-112H-269.5z M-263.4-279h19.8l45.2,103.5l-20-0.2L-263.4-279z"/>
	</g>
</g>
<g>
	<polygon points="90.9,-133 145,-133 157.3,-105 73.8,-105 85.9,-133 	"/>
	<polygon class="st2" points="115.5,-109 104,-109 80.5,-109 89,-129 115.5,-129 142,-129 150.4,-109 126.9,-109 	"/>
</g>
<g>
	<polygon points="90.9,-105 145,-105 157.3,-77 73.8,-77 85.9,-105 	"/>
	<polygon class="st0" points="115.5,-81 104,-81 80.5,-81 89,-101 115.5,-101 142,-101 150.4,-81 126.9,-81 	"/>
</g>
<g>
	<polygon class="st1" points="-73.5,-462 -84,-437.8 -51.1,-437.8 -40.3,-462 	"/>
	<polygon points="-54,-442.1 -77.3,-442.1 -70.3,-458 -46.9,-458 	"/>
</g>
<g>
	<polygon points="10.6,0 0.2,24 32.8,24 43.5,0 	"/>
	<polygon class="st2" points="30,19.7 6.7,19.8 13.7,3.9 37.1,3.9 	"/>
</g>
<g>
	<polygon points="10.6,24 0.2,48 32.8,48 43.5,24 	"/>
	<polygon class="st0" points="30,43.8 6.7,43.9 13.7,28 37.1,28 	"/>
</g>
<g>
	<polygon points="81.6,0 92,24 59.5,24 48.8,0 	"/>
	<polygon class="st2" points="55.1,3.9 78.6,3.9 85.5,19.8 62.2,19.7 	"/>
</g>
<g>
	<polygon points="81.6,24 92,48 59.5,48 48.8,24 	"/>
	<polygon class="st0" points="55.1,28 78.6,28 85.5,43.9 62.2,43.8 	"/>
</g>
<polygon points="13.4,-161 17.7,-161 31.2,-129.9 17.7,-98 13.4,-98 -0.1,-129.9 "/>
<polygon class="st2" points="26.8,-129.8 15.6,-103.9 15.6,-104 15.5,-103.9 4.3,-129.8 15.6,-155.9 "/>
<polygon points="13.4,-98 17.7,-98 31.2,-66.9 17.7,-35 13.4,-35 -0.1,-66.9 "/>
<polygon class="st0" points="26.8,-66.8 15.6,-40.9 15.6,-41 15.5,-40.9 4.3,-66.8 15.6,-92.9 "/>
<polygon class="st1" points="-44.7,-517.8 -49.2,-517.8 -64.8,-482 -33.5,-482 -33.5,-491.9 "/>
<polygon points="-35.7,-486 -58.1,-486 -46.8,-512 "/>
<g>
	<polygon points="-119.3,-78 -123.8,-78 -139.5,-42 -108,-42 -108,-51.9 	"/>
	<polygon class="st2" points="-110.2,-46.2 -132.8,-46.2 -121.4,-72.3 	"/>
</g>
<g>
	<polygon points="-119.3,-42 -123.8,-42 -139.5,-6 -108,-6 -108,-15.9 	"/>
	<polygon class="st0" points="-110.2,-10.2 -132.8,-10.2 -121.4,-36.3 	"/>
</g>
<g>
	<polygon points="-89.2,-78 -84.7,-78 -69,-42 -100.5,-42 -100.5,-51.9 	"/>
	<polygon class="st2" points="-87.1,-72.3 -75.8,-46.2 -98.3,-46.2 	"/>
</g>
<g>
	<polygon points="-89.2,-42 -84.7,-42 -69,-6 -100.5,-6 -100.5,-15.9 	"/>
	<polygon class="st0" points="-87.1,-36.3 -75.8,-10.2 -98.3,-10.2 	"/>
</g>
</svg>
