<?xml version="1.0" encoding="utf-8"?>
<!-- Generator: Adobe Illustrator 19.1.0, SVG Export Plug-In . SVG Version: 6.00 Build 0)  -->
<svg version="1.1" id="Layer_1" xmlns="http://www.w3.org/2000/svg" xmlns:xlink="http://www.w3.org/1999/xlink" x="0px" y="0px"
	 viewBox="0 0 43.7 48" style="enable-background:new 0 0 43.7 48;" xml:space="preserve">
<style type="text/css">
	.st0{fill:#BADA55;}
	.st1{fill:none;}
	.st2{fill:#FFFFFF;}
</style>
<polygon class="st0" points="-105.9,-281.2 -153.1,-173.8 -130.3,-173.8 -82.8,-281.2 "/>
<g>
	<polygon class="st1" points="-125.9,-442.1 -102.5,-442.2 -95.5,-458 -118.9,-458 	"/>
	<polygon class="st1" points="-106.7,-486 -84.2,-486 -95.4,-512 	"/>
	<polygon class="st1" points="-105.6,-545 -150.5,-442.2 -130.6,-442.4 -86,-545 	"/>
	<path d="M-55.7-549H-82h-26.4l-48.6,111.2l57.4,0.1l9-20.2h8.7h8.6l9,20.3l57.4-0.1L-55.7-549z M-70.8-517.8L-82-491.9l0-0.1l0,0.1
		l-11.2-25.9l11.3-26.1L-70.8-517.8z M-68.8-512l11.3,26h-22.4L-68.8-512z M-82-491.8L-82-491.8L-82-491.8L-82-491.8z M-84.2-486
		h-22.4l11.3-26L-84.2-486z M-150.5-442.2l44.8-102.8H-86l-44.6,102.6L-150.5-442.2z M-102.5-442.1l-23.3,0.1l6.9-15.9h23.5
		L-102.5-442.1z M-82-462h-11.5H-117l8.5-20H-82h26.4l8.5,20h-23.5H-82z M-61.6-442.1l-7.1-15.9h23.5l6.9,15.9L-61.6-442.1z
		 M-78.2-545h19.7l44.8,102.8l-19.9-0.2L-78.2-545z"/>
</g>
<polygon class="st1" points="-105.6,-545 -86,-545 -130.6,-442.4 -150.5,-442.2 "/>
<g>
	<path d="M-108.4-395l-49,112h29.9l47.8-112H-108.4z M-130.7-287.6l-20,0.2l45.2-103.5h19.8L-130.7-287.6z"/>
</g>
<g>
	<path d="M-108.4-283l-49,112h29.9l47.8-112H-108.4z M-130.7-175.6l-20,0.2l45.2-103.5h19.8L-130.7-175.6z"/>
</g>
<g>
	<polygon class="st0" points="-11.7,-281.2 35.4,-173.8 12.7,-173.8 -34.8,-281.2 	"/>
	<g>
		<path d="M-38-395L9.8-283h29.9l-49-112H-38z M-31.9-391h19.8l45.2,103.5l-20-0.2L-31.9-391z"/>
	</g>
	<g>
		<path d="M-38-283L9.8-171h29.9l-49-112H-38z M-31.9-279h19.8l45.2,103.5l-20-0.2L-31.9-279z"/>
	</g>
</g>
<g>
	<path d="M-388.5-395l-49,112h29.9l47.8-112H-388.5z M-410.8-287.6l-20,0.2l45.2-103.5h19.8L-410.8-287.6z"/>
</g>
<g>
	<polygon class="st0" points="-291.8,-281.2 -244.7,-173.8 -267.4,-173.8 -314.9,-281.2 	"/>
	<g>
		<path d="M-359.8-395l47.8,112h29.9l-49-112H-359.8z M-353.7-391h19.8l45.2,103.5l-20-0.2L-353.7-391z"/>
	</g>
	<g>
		<path d="M-318.1-283l47.8,112h29.9l-49-112H-318.1z M-312-279h19.8l45.2,103.5l-20-0.2L-312-279z"/>
	</g>
</g>
<g>
	<polygon points="42.3,-133 96.4,-133 108.7,-105 25.2,-105 37.4,-133 	"/>
	<polygon class="st2" points="67,-109 55.5,-109 32,-109 40.4,-129 67,-129 93.4,-129 101.9,-109 78.4,-109 	"/>
</g>
<g>
	<polygon points="42.3,-105 96.4,-105 108.7,-77 25.2,-77 37.4,-105 	"/>
	<polygon class="st0" points="67,-81 55.5,-81 32,-81 40.4,-101 67,-101 93.4,-101 101.9,-81 78.4,-81 	"/>
</g>
<g>
	<polygon class="st1" points="-122.1,-462 -132.6,-437.8 -99.7,-437.8 -88.9,-462 	"/>
	<polygon points="-102.5,-442.1 -125.9,-442.1 -118.9,-458 -95.5,-458 	"/>
</g>
<g>
	<polygon points="-38,0 -48.4,24 -15.8,24 -5.1,0 	"/>
	<polygon class="st2" points="-18.5,19.7 -41.9,19.8 -34.9,3.9 -11.5,3.9 	"/>
</g>
<g>
	<polygon points="-38,24 -48.4,48 -15.8,48 -5.1,24 	"/>
	<polygon class="st0" points="-18.5,43.8 -41.9,43.9 -34.9,28 -11.5,28 	"/>
</g>
<g>
	<polygon points="33.1,0 43.5,24 10.9,24 0.2,0 	"/>
	<polygon class="st2" points="6.6,3.9 30,3.9 37,19.8 13.6,19.7 	"/>
</g>
<g>
	<polygon points="33.1,24 43.5,48 10.9,48 0.2,24 	"/>
	<polygon class="st0" points="6.6,28 30,28 37,43.9 13.6,43.8 	"/>
</g>
<polygon points="-35.2,-161 -30.9,-161 -17.4,-129.9 -30.9,-98 -35.2,-98 -48.7,-129.9 "/>
<polygon class="st2" points="-21.8,-129.8 -33,-103.9 -33,-104 -33,-103.9 -44.3,-129.8 -33,-155.9 "/>
<polygon points="-35.2,-98 -30.9,-98 -17.4,-66.9 -30.9,-35 -35.2,-35 -48.7,-66.9 "/>
<polygon class="st0" points="-21.8,-66.8 -33,-40.9 -33,-41 -33,-40.9 -44.3,-66.8 -33,-92.9 "/>
<polygon class="st1" points="-93.3,-517.8 -97.7,-517.8 -113.4,-482 -82,-482 -82,-491.9 "/>
<polygon points="-84.2,-486 -106.7,-486 -95.4,-512 "/>
<g>
	<polygon points="-167.9,-78 -172.4,-78 -188.1,-42 -156.6,-42 -156.6,-51.9 	"/>
	<polygon class="st2" points="-158.8,-46.2 -181.4,-46.2 -170,-72.3 	"/>
</g>
<g>
	<polygon points="-167.9,-42 -172.4,-42 -188.1,-6 -156.6,-6 -156.6,-15.9 	"/>
	<polygon class="st0" points="-158.8,-10.2 -181.4,-10.2 -170,-36.3 	"/>
</g>
<g>
	<polygon points="-137.8,-78 -133.3,-78 -117.6,-42 -149.1,-42 -149.1,-51.9 	"/>
	<polygon class="st2" points="-135.7,-72.3 -124.3,-46.2 -146.9,-46.2 	"/>
</g>
<g>
	<polygon points="-137.8,-42 -133.3,-42 -117.6,-6 -149.1,-6 -149.1,-15.9 	"/>
	<polygon class="st0" points="-135.7,-36.3 -124.3,-10.2 -146.9,-10.2 	"/>
</g>
</svg>
