<?xml version="1.0" encoding="utf-8"?>
<!-- Generator: Adobe Illustrator 19.1.0, SVG Export Plug-In . SVG Version: 6.00 Build 0)  -->
<svg version="1.1" id="Layer_1" xmlns="http://www.w3.org/2000/svg" xmlns:xlink="http://www.w3.org/1999/xlink" x="0px" y="0px"
	 viewBox="0 0 33 126" style="enable-background:new 0 0 33 126;" xml:space="preserve">
<style type="text/css">
	.st0{fill:#BADA55;}
	.st1{fill:none;}
	.st2{fill:#FFFFFF;}
</style>
<polygon class="st0" points="-56.4,-120.2 -103.6,-12.8 -80.8,-12.8 -33.3,-120.2 "/>
<g>
	<polygon class="st1" points="-76.3,-281.1 -53,-281.2 -45.9,-297 -69.4,-297 	"/>
	<polygon class="st1" points="-57.2,-325 -34.7,-325 -45.9,-351 	"/>
	<polygon class="st1" points="-56.1,-384 -100.9,-281.2 -81.1,-281.4 -36.4,-384 	"/>
	<path d="M-6.2-388h-26.3h-26.4l-48.6,111.2l57.4,0.1l9-20.2h8.7h8.6l9,20.3l57.4-0.1L-6.2-388z M-21.3-356.8l-11.2,25.9l0-0.1
		l0,0.1l-11.2-25.9l11.3-26.1L-21.3-356.8z M-19.3-351L-8-325h-22.4L-19.3-351z M-32.5-330.8L-32.5-330.8L-32.5-330.8L-32.5-330.8z
		 M-34.7-325h-22.4l11.3-26L-34.7-325z M-100.9-281.2L-56.1-384h19.7l-44.6,102.6L-100.9-281.2z M-53-281.1l-23.3,0.1l6.9-15.9h23.5
		L-53-281.1z M-32.5-301H-44h-23.5l8.5-20h26.5h26.4l8.5,20h-23.5H-32.5z M-12.1-281.1l-7.1-15.9H4.3l6.9,15.9L-12.1-281.1z
		 M-28.7-384H-9l44.8,102.8l-19.9-0.2L-28.7-384z"/>
</g>
<polygon class="st1" points="-56.1,-384 -36.4,-384 -81.1,-281.4 -100.9,-281.2 "/>
<g>
	<path d="M-58.9-234l-49,112h29.9l47.8-112H-58.9z M-81.2-126.6l-20,0.2L-56-230h19.8L-81.2-126.6z"/>
</g>
<g>
	<path d="M-58.9-122l-49,112h29.9l47.8-112H-58.9z M-81.2-14.6l-20,0.2L-56-118h19.8L-81.2-14.6z"/>
</g>
<g>
	<polygon class="st0" points="37.8,-120.2 85,-12.8 62.2,-12.8 14.7,-120.2 	"/>
	<g>
		<path d="M11.5-234l47.8,112h29.9l-49-112H11.5z M17.6-230h19.8l45.2,103.5l-20-0.2L17.6-230z"/>
	</g>
	<g>
		<path d="M11.5-122L59.3-10h29.9l-49-112H11.5z M17.6-118h19.8L82.6-14.5l-20-0.2L17.6-118z"/>
	</g>
</g>
<g>
	<path d="M-339-234l-49,112h29.9l47.8-112H-339z M-361.3-126.6l-20,0.2l45.2-103.5h19.8L-361.3-126.6z"/>
</g>
<g>
	<polygon class="st0" points="-242.3,-120.2 -195.1,-12.8 -217.9,-12.8 -265.4,-120.2 	"/>
	<g>
		<path d="M-310.2-234l47.8,112h29.9l-49-112H-310.2z M-304.2-230h19.8l45.2,103.5l-20-0.2L-304.2-230z"/>
	</g>
	<g>
		<path d="M-268.6-122l47.8,112h29.9l-49-112H-268.6z M-262.5-118h19.8l45.2,103.5l-20-0.2L-262.5-118z"/>
	</g>
</g>
<g>
	<polygon points="-118.8,83.1 -123.2,83.1 -138.9,119.1 -107.5,119.1 -107.5,109.1 	"/>
	<polygon class="st2" points="-109.7,117 -132.2,117 -120.9,91 	"/>
</g>
<g>
	<polygon points="-118.8,119.1 -123.2,119.1 -138.9,155.1 -107.5,155.1 -107.5,145.1 	"/>
	<polygon class="st0" points="-109.7,153 -132.2,153 -120.9,127 	"/>
</g>
<g>
	<g>
		<polygon points="-87.9,83.1 -83.4,83.1 -67.7,119.1 -99.2,119.1 -99.2,109.1 		"/>
		<polygon class="st2" points="-85.8,91 -74.5,117 -96.9,117 		"/>
	</g>
	<g>
		<polygon points="-87.9,119.1 -83.4,119.1 -67.7,155.1 -99.2,155.1 -99.2,145.1 		"/>
		<polygon class="st0" points="-85.8,127 -74.5,153 -96.9,153 		"/>
	</g>
</g>
<g>
	<polygon points="91.8,28 146,28 158.2,56 74.7,56 86.9,28 	"/>
	<polygon class="st2" points="116.5,52 105,52 81.5,52 90,32 116.5,32 142.9,32 151.4,52 127.9,52 	"/>
</g>
<g>
	<polygon points="91.8,56 146,56 158.2,84 74.7,84 86.9,56 	"/>
	<polygon class="st0" points="116.5,80 105,80 81.5,80 90,60 116.5,60 142.9,60 151.4,80 127.9,80 	"/>
</g>
<g>
	<polygon class="st1" points="-72.6,-301 -83.1,-276.8 -50.2,-276.8 -39.4,-301 	"/>
	<polygon points="-53,-281.1 -76.3,-281.1 -69.4,-297 -45.9,-297 	"/>
</g>
<g>
	<polygon points="11.6,161.1 1.1,185.1 33.7,185.1 44.4,161.1 	"/>
	<polygon class="st2" points="31,180.9 7.7,180.9 14.6,165 38.1,165 	"/>
</g>
<g>
	<polygon points="11.6,185 1.1,209 33.7,209 44.4,185 	"/>
	<polygon class="st0" points="31,204.8 7.7,204.9 14.6,189 38.1,189 	"/>
</g>
<g>
	<polygon points="84.5,161.1 94.9,185.1 62.3,185.1 51.6,161.1 	"/>
	<polygon class="st2" points="58,165 81.4,165 88.4,180.9 65,180.9 	"/>
</g>
<g>
	<polygon points="84.5,185 94.9,209 62.3,209 51.6,185 	"/>
	<polygon class="st0" points="58,189 81.4,189 88.4,204.9 65,204.8 	"/>
</g>
<polygon class="st1" points="-34.7,-388 -30.4,-388 -16.9,-356.9 -30.4,-325 -34.7,-325 -48.2,-356.9 "/>
<polygon points="-21.3,-356.8 -32.5,-330.9 -32.5,-331 -32.6,-330.9 -43.8,-356.8 -32.5,-382.9 "/>
<polygon points="14.3,0 18.7,0 32.2,31.1 18.7,63 14.3,63 0.8,31.1 "/>
<polygon class="st2" points="27.7,31.2 16.5,57.1 16.5,57 16.5,57.1 5.3,31.2 16.5,5.1 "/>
<polygon points="14.3,63 18.7,63 32.2,94.1 18.7,126 14.3,126 0.8,94.1 "/>
<polygon class="st0" points="27.7,94.2 16.5,120.1 16.5,120 16.5,120.1 5.3,94.2 16.5,68.1 "/>
</svg>
