<?xml version="1.0" encoding="utf-8"?>
<!-- Generator: Adobe Illustrator 19.1.0, SVG Export Plug-In . SVG Version: 6.00 Build 0)  -->
<svg version="1.1" id="Layer_1" xmlns="http://www.w3.org/2000/svg" xmlns:xlink="http://www.w3.org/1999/xlink" x="0px" y="0px"
	 viewBox="0 0 152 120" style="enable-background:new 0 0 152 120;" xml:space="preserve">
<style type="text/css">
	.st0{fill:none;}
	.st1{fill:#BADA55;}
</style>
<g>
	<polygon class="st0" points="32.2,-174.5 55.5,-174.6 62.6,-190.4 39.2,-190.4 	"/>
	<polygon class="st0" points="51.4,-218.4 73.8,-218.4 62.7,-244.3 	"/>
	<polygon class="st0" points="52.4,-277.4 7.6,-174.6 27.5,-174.8 72.1,-277.4 	"/>
	<path d="M102.4-281.4H76H49.6L1-170.2l57.4,0.1l9-20.2H76h8.6l9,20.3l57.4-0.1L102.4-281.4z M87.2-250.2L76-224.3l0-0.1l0,0.1
		l-11.2-25.9L76-276.3L87.2-250.2z M89.3-244.3l11.3,26H78.1L89.3-244.3z M76-224.2L76-224.2L76-224.2L76-224.2z M73.8-218.4H51.4
		l11.3-26L73.8-218.4z M7.6-174.6l44.8-102.8h19.7L27.5-174.8L7.6-174.6z M55.5-174.5l-23.3,0.1l6.9-15.9h23.5L55.5-174.5z
		 M76-194.4H64.5H41l8.5-20H76h26.4l8.5,20H87.4H76z M96.4-174.5l-7.1-15.9h23.5l6.9,15.9L96.4-174.5z M79.9-277.4h19.7l44.8,102.8
		l-19.9-0.2L79.9-277.4z"/>
</g>
<polygon class="st0" points="78.1,-281.4 49.6,-281.4 1,-170.2 30.7,-170.2 "/>
<polygon class="st0" points="52.4,-277.4 72.1,-277.4 27.5,-174.8 7.6,-174.6 "/>
<g>
	<path d="M49.6-128L1-16.8h29.7L78.1-128H49.6z M27.5-21.4L7.6-21.2L52.4-124h19.7L27.5-21.4z"/>
</g>
<g>
	<path d="M49.6,4L1,115.2h29.7L78.1,4H49.6z M27.5,110.6l-19.9,0.2L52.4,8h19.7L27.5,110.6z"/>
</g>
<polygon class="st1" points="52.4,8 7.6,110.8 27.5,110.6 72.1,8 "/>
</svg>
