<?xml version="1.0" encoding="utf-8"?>
<!-- Generator: Adobe Illustrator 19.1.0, SVG Export Plug-In . SVG Version: 6.00 Build 0)  -->
<svg version="1.1" id="Layer_1" xmlns="http://www.w3.org/2000/svg" xmlns:xlink="http://www.w3.org/1999/xlink" x="0px" y="0px"
	 viewBox="0 0 84 56" style="enable-background:new 0 0 84 56;" xml:space="preserve">
<style type="text/css">
	.st0{fill:#BADA55;}
	.st1{fill:none;}
	.st2{fill:#FFFFFF;}
</style>
<polygon class="st0" points="-130.9,-148.2 -178,-40.8 -155.3,-40.8 -107.8,-148.2 "/>
<g>
	<polygon class="st1" points="-150.8,-309.1 -127.5,-309.2 -120.4,-325 -143.9,-325 	"/>
	<polygon class="st1" points="-131.6,-353 -109.2,-353 -120.3,-379 	"/>
	<polygon class="st1" points="-130.6,-412 -175.4,-309.2 -155.5,-309.4 -110.9,-412 	"/>
	<path d="M-80.7-416H-107h-26.4L-182-304.8l57.4,0.1l9-20.2h8.7h8.6l9,20.3l57.4-0.1L-80.7-416z M-95.8-384.8l-11.2,25.9l0-0.1
		l0,0.1l-11.2-25.9l11.3-26.1L-95.8-384.8z M-93.7-379l11.3,26h-22.4L-93.7-379z M-107-358.8L-107-358.8L-107-358.8L-107-358.8z
		 M-109.2-353h-22.4l11.3-26L-109.2-353z M-175.4-309.2l44.8-102.8h19.7l-44.6,102.6L-175.4-309.2z M-127.5-309.1l-23.3,0.1
		l6.9-15.9h23.5L-127.5-309.1z M-107-329h-11.5H-142l8.5-20h26.5h26.4l8.5,20h-23.5H-107z M-86.6-309.1l-7.1-15.9h23.5l6.9,15.9
		L-86.6-309.1z M-103.1-412h19.7l44.8,102.8l-19.9-0.2L-103.1-412z"/>
</g>
<polygon class="st1" points="-130.6,-412 -110.9,-412 -155.5,-309.4 -175.4,-309.2 "/>
<g>
	<path d="M-133.3-262l-49,112h29.9l47.8-112H-133.3z M-155.6-154.6l-20,0.2l45.2-103.5h19.8L-155.6-154.6z"/>
</g>
<g>
	<path d="M-133.3-150l-49,112h29.9l47.8-112H-133.3z M-155.6-42.6l-20,0.2l45.2-103.5h19.8L-155.6-42.6z"/>
</g>
<g>
	<polygon class="st0" points="-36.6,-148.2 10.5,-40.8 -12.2,-40.8 -59.7,-148.2 	"/>
	<g>
		<path d="M-62.9-262l47.8,112h29.9l-49-112H-62.9z M-56.8-258H-37L8.1-154.5l-20-0.2L-56.8-258z"/>
	</g>
	<g>
		<path d="M-62.9-150l47.8,112h29.9l-49-112H-62.9z M-56.8-146H-37L8.1-42.5l-20-0.2L-56.8-146z"/>
	</g>
</g>
<g>
	<path d="M-413.4-262l-49,112h29.9l47.8-112H-413.4z M-435.7-154.6l-20,0.2l45.2-103.5h19.8L-435.7-154.6z"/>
</g>
<g>
	<polygon class="st0" points="-316.8,-148.2 -269.6,-40.8 -292.4,-40.8 -339.9,-148.2 	"/>
	<g>
		<path d="M-384.7-262l47.8,112h29.9l-49-112H-384.7z M-378.6-258h19.8l45.2,103.5l-20-0.2L-378.6-258z"/>
	</g>
	<g>
		<path d="M-343-150l47.8,112h29.9l-49-112H-343z M-336.9-146h19.8L-272-42.5l-20-0.2L-336.9-146z"/>
	</g>
</g>
<polygon points="-71.3,9 -74.4,4.8 -60.2,-28 -55.9,-28 -41.5,5.1 -55.9,35 -60.2,35 "/>
<polygon class="st2" points="-46.8,3.2 -58,29.1 -58,29 -58,29.1 -69.2,3.2 -58,-22.9 "/>
<polygon points="-71.3,72 -74.4,67.8 -60.2,35 -55.9,35 -41.5,68.1 -55.9,98 -60.2,98 "/>
<polygon class="st0" points="-46.8,66.2 -58,92.1 -58,92 -58,92.1 -69.2,66.2 -58,40.1 "/>
<g>
	<polygon points="-193.2,55.1 -197.7,55.1 -213.4,91.1 -181.9,91.1 -181.9,81.1 	"/>
	<polygon class="st2" points="-184.2,89 -206.6,89 -195.3,63 	"/>
</g>
<g>
	<polygon points="-193.2,91.1 -197.7,91.1 -213.4,127.1 -181.9,127.1 -181.9,117.1 	"/>
	<polygon class="st0" points="-184.2,125 -206.6,125 -195.3,99 	"/>
</g>
<g>
	<g>
		<polygon points="-162.3,55.1 -157.9,55.1 -142.2,91.1 -173.6,91.1 -173.6,81.1 		"/>
		<polygon class="st2" points="-160.2,63 -148.9,89 -171.4,89 		"/>
	</g>
	<g>
		<polygon points="-162.3,91.1 -157.9,91.1 -142.2,127.1 -173.6,127.1 -173.6,117.1 		"/>
		<polygon class="st0" points="-160.2,99 -148.9,125 -171.4,125 		"/>
	</g>
</g>
<g>
	<polygon class="st1" points="-131.6,-353 -77.5,-353 -65.3,-325 -148.7,-325 -136.6,-353 	"/>
	<polygon points="-107,-329 -118.5,-329 -142,-329 -133.5,-349 -107,-349 -80.6,-349 -72.1,-329 -95.6,-329 	"/>
</g>
<g>
	<polygon points="17.4,0 71.5,0 83.7,28 0.3,28 12.4,0 	"/>
	<polygon class="st2" points="42,24 30.5,24 7,24 15.5,4 42,4 68.4,4 76.9,24 53.4,24 	"/>
</g>
<g>
	<polygon points="17.4,28 71.5,28 83.7,56 0.3,56 12.4,28 	"/>
	<polygon class="st0" points="42,52 30.5,52 7,52 15.5,32 42,32 68.4,32 76.9,52 53.4,52 	"/>
</g>
</svg>
