<?xml version="1.0" encoding="utf-8"?>
<!-- Generator: Adobe Illustrator 19.1.0, SVG Export Plug-In . SVG Version: 6.00 Build 0)  -->
<svg version="1.1" id="Layer_1" xmlns="http://www.w3.org/2000/svg" xmlns:xlink="http://www.w3.org/1999/xlink" x="0px" y="0px"
	 viewBox="0 0 32 72" style="enable-background:new 0 0 32 72;" xml:space="preserve">
<style type="text/css">
	.st0{fill:#BADA55;}
	.st1{fill:none;}
	.st2{fill:#FFFFFF;}
</style>
<polygon class="st0" points="82.4,-203.2 35.3,-95.8 58,-95.8 105.5,-203.2 "/>
<g>
	<polygon class="st1" points="62.5,-364.1 85.8,-364.2 92.9,-380 69.4,-380 	"/>
	<polygon class="st1" points="81.7,-408 104.1,-408 93,-434 	"/>
	<polygon class="st1" points="82.7,-467 37.9,-364.2 57.8,-364.4 102.4,-467 	"/>
	<path d="M132.6-471h-26.3H79.9L31.3-359.8l57.4,0.1l9-20.2h8.7h8.6l9,20.3l57.4-0.1L132.6-471z M117.5-439.8l-11.2,25.9l0-0.1
		l0,0.1l-11.2-25.9l11.3-26.1L117.5-439.8z M119.6-434l11.3,26h-22.4L119.6-434z M106.3-413.8L106.3-413.8L106.3-413.8L106.3-413.8z
		 M104.1-408H81.7L93-434L104.1-408z M37.9-364.2L82.7-467h19.7L57.8-364.4L37.9-364.2z M85.8-364.1l-23.3,0.1l6.9-15.9h23.5
		L85.8-364.1z M106.3-384H94.8H71.3l8.5-20h26.5h26.4l8.5,20h-23.5H106.3z M126.7-364.1l-7.1-15.9h23.5l6.9,15.9L126.7-364.1z
		 M110.1-467h19.7l44.8,102.8l-19.9-0.2L110.1-467z"/>
</g>
<polygon class="st1" points="82.7,-467 102.4,-467 57.8,-364.4 37.9,-364.2 "/>
<g>
	<path d="M80-317L31-205h29.9l47.8-112H80z M57.7-209.6l-20,0.2L82.8-313h19.8L57.7-209.6z"/>
</g>
<g>
	<path d="M80-205L31-93h29.9l47.8-112H80z M57.7-97.6l-20,0.2L82.8-201h19.8L57.7-97.6z"/>
</g>
<g>
	<polygon class="st0" points="176.7,-203.2 223.8,-95.8 201.1,-95.8 153.6,-203.2 	"/>
	<g>
		<path d="M150.4-317l47.8,112h29.9l-49-112H150.4z M156.5-313h19.8l45.2,103.5l-20-0.2L156.5-313z"/>
	</g>
	<g>
		<path d="M150.4-205l47.8,112h29.9l-49-112H150.4z M156.5-201h19.8l45.2,103.5l-20-0.2L156.5-201z"/>
	</g>
</g>
<g>
	<path d="M-200.1-317l-49,112h29.9l47.8-112H-200.1z M-222.4-209.6l-20,0.2l45.2-103.5h19.8L-222.4-209.6z"/>
</g>
<g>
	<polygon class="st0" points="-103.5,-203.2 -56.3,-95.8 -79.1,-95.8 -126.6,-203.2 	"/>
	<g>
		<path d="M-171.4-317l47.8,112h29.9l-49-112H-171.4z M-165.3-313h19.8l45.2,103.5l-20-0.2L-165.3-313z"/>
	</g>
	<g>
		<path d="M-129.7-205l47.8,112H-52l-49-112H-129.7z M-123.6-201h19.8l45.2,103.5l-20-0.2L-123.6-201z"/>
	</g>
</g>
<g>
	<polygon points="230.7,-55 284.8,-55 297,-27 213.5,-27 225.7,-55 	"/>
	<polygon class="st2" points="255.3,-31 243.8,-31 220.3,-31 228.8,-51 255.3,-51 281.7,-51 290.2,-31 266.7,-31 	"/>
</g>
<g>
	<polygon points="230.7,-27 284.8,-27 297,1 213.5,1 225.7,-27 	"/>
	<polygon class="st0" points="255.3,-3 243.8,-3 220.3,-3 228.8,-23 255.3,-23 281.7,-23 290.2,-3 266.7,-3 	"/>
</g>
<g>
	<polygon class="st1" points="66.3,-384 55.8,-359.8 88.6,-359.8 99.5,-384 	"/>
	<polygon points="85.8,-364.1 62.5,-364.1 69.4,-380 92.9,-380 	"/>
</g>
<g>
	<polygon points="150.4,78.1 140,102.1 172.5,102.1 183.3,78.1 	"/>
	<polygon class="st2" points="169.8,97.9 146.5,97.9 153.4,82 176.9,82 	"/>
</g>
<g>
	<polygon points="150.4,102 140,126 172.5,126 183.3,102 	"/>
	<polygon class="st0" points="169.8,121.8 146.5,121.9 153.4,106 176.9,106 	"/>
</g>
<g>
	<polygon points="223.3,78.1 233.7,102.1 201.2,102.1 190.4,78.1 	"/>
	<polygon class="st2" points="196.8,82 220.3,82 227.2,97.9 203.9,97.9 	"/>
</g>
<g>
	<polygon points="223.3,102 233.7,126 201.2,126 190.4,102 	"/>
	<polygon class="st0" points="196.8,106 220.3,106 227.2,121.9 203.9,121.8 	"/>
</g>
<polygon points="153.2,-83 157.5,-83 171,-51.9 157.5,-20 153.2,-20 139.7,-51.9 "/>
<polygon class="st2" points="166.6,-51.8 155.4,-25.9 155.4,-26 155.3,-25.9 144.1,-51.8 155.4,-77.9 "/>
<polygon points="153.2,-20 157.5,-20 171,11.1 157.5,43 153.2,43 139.7,11.1 "/>
<polygon class="st0" points="166.6,11.2 155.4,37.1 155.4,37 155.3,37.1 144.1,11.2 155.4,-14.9 "/>
<polygon class="st1" points="95.1,-439.8 90.6,-439.8 75,-404 106.3,-404 106.3,-413.9 "/>
<polygon points="104.1,-408 81.7,-408 93,-434 "/>
<g>
	<polygon points="20.4,0 16,0 0.3,36 31.8,36 31.8,26.1 	"/>
	<polygon class="st2" points="29.5,31.8 7,31.8 18.3,5.7 	"/>
</g>
<g>
	<polygon points="20.4,36 16,36 0.3,72 31.8,72 31.8,62.1 	"/>
	<polygon class="st0" points="29.5,67.8 7,67.8 18.3,41.7 	"/>
</g>
<g>
	<polygon points="57.6,0.4 53.1,0.4 37.5,36.2 68.8,36.2 68.8,26.3 	"/>
	<polygon class="st2" points="66.6,32 44.2,32 55.5,6 	"/>
</g>
<g>
	<polygon points="57.6,36.4 53.1,36.4 37.5,72.2 68.8,72.2 68.8,62.3 	"/>
	<polygon class="st0" points="66.6,68 44.2,68 55.5,42 	"/>
</g>
</svg>
