<?xml version="1.0" encoding="utf-8"?>
<!-- Generator: Adobe Illustrator 19.1.0, SVG Export Plug-In . SVG Version: 6.00 Build 0)  -->
<svg version="1.1" id="Layer_1" xmlns="http://www.w3.org/2000/svg" xmlns:xlink="http://www.w3.org/1999/xlink" x="0px" y="0px"
	 viewBox="0 0 32 72" style="enable-background:new 0 0 32 72;" xml:space="preserve">
<style type="text/css">
	.st0{fill:#BADA55;}
	.st1{fill:none;}
	.st2{fill:#FFFFFF;}
</style>
<polygon class="st0" points="43.4,-203.2 -3.7,-95.8 19,-95.8 66.5,-203.2 "/>
<g>
	<polygon class="st1" points="23.5,-364.1 46.8,-364.2 53.9,-380 30.4,-380 	"/>
	<polygon class="st1" points="42.7,-408 65.1,-408 54,-434 	"/>
	<polygon class="st1" points="43.7,-467 -1.1,-364.2 18.8,-364.4 63.4,-467 	"/>
	<path d="M93.6-471H67.3H40.9L-7.7-359.8l57.4,0.1l9-20.2h8.7h8.6l9,20.3l57.4-0.1L93.6-471z M78.5-439.8l-11.2,25.9l0-0.1l0,0.1
		l-11.2-25.9l11.3-26.1L78.5-439.8z M80.6-434l11.3,26H69.4L80.6-434z M67.3-413.8L67.3-413.8L67.3-413.8L67.3-413.8z M65.1-408
		H42.7L54-434L65.1-408z M-1.1-364.2L43.7-467h19.7L18.8-364.4L-1.1-364.2z M46.8-364.1l-23.3,0.1l6.9-15.9h23.5L46.8-364.1z
		 M67.3-384H55.8H32.3l8.5-20h26.5h26.4l8.5,20H78.7H67.3z M87.7-364.1L80.6-380h23.5l6.9,15.9L87.7-364.1z M71.1-467h19.7
		l44.8,102.8l-19.9-0.2L71.1-467z"/>
</g>
<polygon class="st1" points="43.7,-467 63.4,-467 18.8,-364.4 -1.1,-364.2 "/>
<g>
	<path d="M41-317L-8-205h29.9l47.8-112H41z M18.7-209.6l-20,0.2L43.8-313h19.8L18.7-209.6z"/>
</g>
<g>
	<path d="M41-205L-8-93h29.9l47.8-112H41z M18.7-97.6l-20,0.2L43.8-201h19.8L18.7-97.6z"/>
</g>
<g>
	<polygon class="st0" points="137.7,-203.2 184.8,-95.8 162.1,-95.8 114.6,-203.2 	"/>
	<g>
		<path d="M111.4-317l47.8,112h29.9l-49-112H111.4z M117.5-313h19.8l45.2,103.5l-20-0.2L117.5-313z"/>
	</g>
	<g>
		<path d="M111.4-205l47.8,112h29.9l-49-112H111.4z M117.5-201h19.8l45.2,103.5l-20-0.2L117.5-201z"/>
	</g>
</g>
<g>
	<path d="M-239.1-317l-49,112h29.9l47.8-112H-239.1z M-261.4-209.6l-20,0.2l45.2-103.5h19.8L-261.4-209.6z"/>
</g>
<g>
	<polygon class="st0" points="-142.5,-203.2 -95.3,-95.8 -118.1,-95.8 -165.6,-203.2 	"/>
	<g>
		<path d="M-210.4-317l47.8,112h29.9l-49-112H-210.4z M-204.3-313h19.8l45.2,103.5l-20-0.2L-204.3-313z"/>
	</g>
	<g>
		<path d="M-168.7-205l47.8,112H-91l-49-112H-168.7z M-162.6-201h19.8l45.2,103.5l-20-0.2L-162.6-201z"/>
	</g>
</g>
<g>
	<polygon points="191.7,-55 245.8,-55 258,-27 174.5,-27 186.7,-55 	"/>
	<polygon class="st2" points="216.3,-31 204.8,-31 181.3,-31 189.8,-51 216.3,-51 242.7,-51 251.2,-31 227.7,-31 	"/>
</g>
<g>
	<polygon points="191.7,-27 245.8,-27 258,1 174.5,1 186.7,-27 	"/>
	<polygon class="st0" points="216.3,-3 204.8,-3 181.3,-3 189.8,-23 216.3,-23 242.7,-23 251.2,-3 227.7,-3 	"/>
</g>
<g>
	<polygon class="st1" points="27.3,-384 16.8,-359.8 49.6,-359.8 60.5,-384 	"/>
	<polygon points="46.8,-364.1 23.5,-364.1 30.4,-380 53.9,-380 	"/>
</g>
<g>
	<polygon points="111.4,78.1 101,102.1 133.5,102.1 144.3,78.1 	"/>
	<polygon class="st2" points="130.8,97.9 107.5,97.9 114.4,82 137.9,82 	"/>
</g>
<g>
	<polygon points="111.4,102 101,126 133.5,126 144.3,102 	"/>
	<polygon class="st0" points="130.8,121.8 107.5,121.9 114.4,106 137.9,106 	"/>
</g>
<g>
	<polygon points="184.3,78.1 194.7,102.1 162.2,102.1 151.4,78.1 	"/>
	<polygon class="st2" points="157.8,82 181.3,82 188.2,97.9 164.9,97.9 	"/>
</g>
<g>
	<polygon points="184.3,102 194.7,126 162.2,126 151.4,102 	"/>
	<polygon class="st0" points="157.8,106 181.3,106 188.2,121.9 164.9,121.8 	"/>
</g>
<polygon points="114.2,-83 118.5,-83 132,-51.9 118.5,-20 114.2,-20 100.7,-51.9 "/>
<polygon class="st2" points="127.6,-51.8 116.4,-25.9 116.4,-26 116.3,-25.9 105.1,-51.8 116.4,-77.9 "/>
<polygon points="114.2,-20 118.5,-20 132,11.1 118.5,43 114.2,43 100.7,11.1 "/>
<polygon class="st0" points="127.6,11.2 116.4,37.1 116.4,37 116.3,37.1 105.1,11.2 116.4,-14.9 "/>
<polygon class="st1" points="56.1,-439.8 51.6,-439.8 36,-404 67.3,-404 67.3,-413.9 "/>
<polygon points="65.1,-408 42.7,-408 54,-434 "/>
<g>
	<polygon points="-18.6,0 -23,0 -38.7,36 -7.2,36 -7.2,26.1 	"/>
	<polygon class="st2" points="-9.5,31.8 -32,31.8 -20.7,5.7 	"/>
</g>
<g>
	<polygon points="-18.6,36 -23,36 -38.7,72 -7.2,72 -7.2,62.1 	"/>
	<polygon class="st0" points="-9.5,67.8 -32,67.8 -20.7,41.7 	"/>
</g>
<g>
	<polygon points="11.6,0 16.1,0 31.8,36 0.3,36 0.3,26.1 	"/>
	<polygon class="st2" points="13.7,5.7 25,31.8 2.5,31.8 	"/>
</g>
<g>
	<polygon points="11.6,36 16.1,36 31.8,72 0.3,72 0.3,62.1 	"/>
	<polygon class="st0" points="13.7,41.7 25,67.8 2.5,67.8 	"/>
</g>
</svg>
