<?xml version="1.0" encoding="utf-8"?>
<!-- Generator: Adobe Illustrator 19.1.0, SVG Export Plug-In . SVG Version: 6.00 Build 0)  -->
<svg version="1.1" id="Layer_1" xmlns="http://www.w3.org/2000/svg" xmlns:xlink="http://www.w3.org/1999/xlink" x="0px" y="0px"
	 viewBox="0 0 80 224" style="enable-background:new 0 0 80 224;" xml:space="preserve">
<style type="text/css">
	.st0{fill:#BADA55;}
	.st1{fill:none;}
</style>
<polygon class="st0" points="52.2,113.8 5.1,221.3 27.8,221.3 75.3,113.8 "/>
<g>
	<polygon class="st1" points="32.3,-47.1 55.6,-47.2 62.7,-63 39.2,-63 	"/>
	<polygon class="st1" points="51.5,-91 73.9,-91 62.8,-116.9 	"/>
	<polygon class="st1" points="52.5,-150 7.7,-47.2 27.5,-47.4 72.2,-150 	"/>
	<path d="M102.4-154H76.1H49.7L1.1-42.8l57.4,0.1l9-20.2h8.7h8.6l9,20.3l57.4-0.1L102.4-154z M87.3-122.8L76.1-96.9l0-0.1l0,0.1
		l-11.2-25.9l11.3-26.1L87.3-122.8z M89.4-116.9l11.3,26H78.2L89.4-116.9z M76.1-96.8L76.1-96.8L76.1-96.8L76.1-96.8z M73.9-91H51.5
		l11.3-26L73.9-91z M7.7-47.2L52.5-150h19.7L27.5-47.4L7.7-47.2z M55.6-47.1l-23.3,0.1L39.2-63h23.5L55.6-47.1z M76.1-67H64.6H41.1
		l8.5-20h26.5h26.4l8.5,20H87.5H76.1z M96.5-47.1L89.4-63h23.5l6.9,15.9L96.5-47.1z M79.9-150h19.7l44.8,102.8l-19.9-0.2L79.9-150z"
		/>
</g>
<polygon class="st1" points="78.2,-154 49.7,-154 1.1,-42.8 30.8,-42.8 "/>
<polygon class="st1" points="52.5,-150 72.2,-150 27.5,-47.4 7.7,-47.2 "/>
<g>
	<path d="M49.8,0l-49,112h29.9L78.5,0H49.8z M27.5,107.4l-20,0.2L52.6,4h19.8L27.5,107.4z"/>
</g>
<g>
	<path d="M49.8,112l-49,112h29.9l47.8-112H49.8z M27.5,219.4l-20,0.2L52.6,116h19.8L27.5,219.4z"/>
</g>
<g>
	<path d="M168.5,131.4l-48.6,111.2h29.7L197,131.4H168.5z M146.3,238l-19.9,0.2l44.8-102.8H191L146.3,238z"/>
</g>
<polygon class="st0" points="171.3,135.4 126.5,238.2 146.3,238 191,135.4 "/>
</svg>
