<?xml version="1.0" encoding="utf-8"?>
<!-- Generator: Adobe Illustrator 19.1.0, SVG Export Plug-In . SVG Version: 6.00 Build 0)  -->
<svg version="1.1" id="Layer_1" xmlns="http://www.w3.org/2000/svg" xmlns:xlink="http://www.w3.org/1999/xlink" x="0px" y="0px"
	 viewBox="0 0 152 120" style="enable-background:new 0 0 152 120;" xml:space="preserve">
<style type="text/css">
	.st0{fill:none;}
</style>
<g>
	<polygon class="st0" points="32.2,-42.5 55.5,-42.6 62.6,-58.4 39.2,-58.4 	"/>
	<polygon class="st0" points="51.4,-86.4 73.8,-86.4 62.7,-112.3 	"/>
	<polygon class="st0" points="52.4,-145.4 7.6,-42.6 27.5,-42.8 72.1,-145.4 	"/>
	<path d="M102.4-149.4H76H49.6L1-38.2l57.4,0.1l9-20.2H76h8.6l9,20.3l57.4-0.1L102.4-149.4z M87.2-118.2L76-92.3l0-0.1l0,0.1
		l-11.2-25.9L76-144.3L87.2-118.2z M89.3-112.3l11.3,26H78.1L89.3-112.3z M76-92.2L76-92.2L76-92.2L76-92.2z M73.8-86.4H51.4
		l11.3-26L73.8-86.4z M7.6-42.6l44.8-102.8h19.7L27.5-42.8L7.6-42.6z M55.5-42.5l-23.3,0.1l6.9-15.9h23.5L55.5-42.5z M76-62.4H64.5
		H41l8.5-20H76h26.4l8.5,20H87.4H76z M96.4-42.5l-7.1-15.9h23.5l6.9,15.9L96.4-42.5z M79.9-145.4h19.7l44.8,102.8l-19.9-0.2
		L79.9-145.4z"/>
</g>
<polygon class="st0" points="78.1,-149.4 49.6,-149.4 1,-38.2 30.7,-38.2 "/>
<polygon class="st0" points="52.4,-145.4 72.1,-145.4 27.5,-42.8 7.6,-42.6 "/>
<g>
	<path d="M49.6,4L1,115.2h29.7L78.1,4H49.6z M27.5,110.6l-19.9,0.2L52.4,8h19.7L27.5,110.6z"/>
</g>
<polygon points="52.4,140 7.6,242.8 27.5,242.6 72.1,140 "/>
</svg>
