<?xml version="1.0" encoding="utf-8"?>
<!-- Generator: Adobe Illustrator 19.1.0, SVG Export Plug-In . SVG Version: 6.00 Build 0)  -->
<svg version="1.1" id="Layer_1" xmlns="http://www.w3.org/2000/svg" xmlns:xlink="http://www.w3.org/1999/xlink" x="0px" y="0px"
	 viewBox="0 0 152 120" style="enable-background:new 0 0 152 120;" xml:space="preserve">
<style type="text/css">
	.st0{fill:none;}
</style>
<g>
	<polygon class="st0" points="32.2,110.9 55.5,110.8 62.6,95 39.2,95 	"/>
	<polygon class="st0" points="51.4,67 73.8,67 62.7,41 	"/>
	<polygon class="st0" points="41,91 64.5,91 76,91 76,71 49.5,71 	"/>
	<polygon class="st0" points="76.1,61.3 76,61 76,9.1 64.8,35.2 	"/>
	<polygon class="st0" points="52.4,8 7.6,110.8 27.5,110.6 72.1,8 	"/>
	<path d="M102.4,4H76H49.6L1,115.2l57.4,0.1l9-20.2H76h8.6l9,20.3l57.4-0.1L102.4,4z M87.2,35.2L76,61.1l0-0.1l0,0.1L64.8,35.2
		L76,9.1L87.2,35.2z M89.3,41l11.3,26H78.1L89.3,41z M76,61.2L76,61.2L76,61.2L76,61.2z M73.8,67H51.4l11.3-26L73.8,67z M7.6,110.8
		L52.4,8h19.7L27.5,110.6L7.6,110.8z M55.5,110.9l-23.3,0.1L39.2,95h23.5L55.5,110.9z M76,91H64.5H41l8.5-20H76h26.4l8.5,20H87.4H76
		z M96.4,110.9L89.3,95h23.5l6.9,15.9L96.4,110.9z M79.9,8h19.7l44.8,102.8l-19.9-0.2L79.9,8z"/>
</g>
</svg>
