<?xml version="1.0" encoding="utf-8"?>
<!-- Generator: Adobe Illustrator 19.1.0, SVG Export Plug-In . SVG Version: 6.00 Build 0)  -->
<svg version="1.1" id="Layer_1" xmlns="http://www.w3.org/2000/svg" xmlns:xlink="http://www.w3.org/1999/xlink" x="0px" y="0px"
	 viewBox="0 0 80 224" style="enable-background:new 0 0 80 224;" xml:space="preserve">
<style type="text/css">
	.st0{fill:#BADA55;}
	.st1{fill:none;}
</style>
<polygon class="st0" points="-67.2,113.8 -114.3,221.3 -91.6,221.3 -44.1,113.8 "/>
<g>
	<polygon class="st1" points="-87.1,-47.1 -63.8,-47.2 -56.7,-63 -80.2,-63 	"/>
	<polygon class="st1" points="-67.9,-91 -45.5,-91 -56.6,-116.9 	"/>
	<polygon class="st1" points="-66.9,-150 -111.7,-47.2 -91.8,-47.4 -47.2,-150 	"/>
	<path d="M-17-154h-26.3h-26.4l-48.6,111.2l57.4,0.1l9-20.2h8.7h8.6l9,20.3l57.4-0.1L-17-154z M-32.1-122.8l-11.2,25.9l0-0.1l0,0.1
		l-11.2-25.9l11.3-26.1L-32.1-122.8z M-30-116.9l11.3,26h-22.4L-30-116.9z M-43.3-96.8L-43.3-96.8L-43.3-96.8L-43.3-96.8z M-45.5-91
		h-22.4l11.3-26L-45.5-91z M-111.7-47.2L-66.9-150h19.7L-91.8-47.4L-111.7-47.2z M-63.8-47.1l-23.3,0.1l6.9-15.9h23.5L-63.8-47.1z
		 M-43.3-67h-11.5h-23.5l8.5-20h26.5h26.4l8.5,20h-23.5H-43.3z M-22.9-47.1L-30-63h23.5l6.9,15.9L-22.9-47.1z M-39.5-150h19.7
		L25-47.2L5.2-47.4L-39.5-150z"/>
</g>
<polygon class="st1" points="-41.2,-154 -69.7,-154 -118.3,-42.8 -88.6,-42.8 "/>
<polygon class="st1" points="-66.9,-150 -47.2,-150 -91.8,-47.4 -111.7,-47.2 "/>
<g>
	<path d="M-69.6,0l-49,112h29.9L-40.9,0H-69.6z M-91.9,107.4l-20,0.2L-66.8,4H-47L-91.9,107.4z"/>
</g>
<g>
	<path d="M-69.6,112l-49,112h29.9l47.8-112H-69.6z M-91.9,219.4l-20,0.2L-66.8,116H-47L-91.9,219.4z"/>
</g>
<g>
	<polygon class="st0" points="27,113.8 74.2,221.3 51.4,221.3 3.9,113.8 	"/>
	<g>
		<path d="M0.8,0l47.8,112h29.9L29.5,0L0.8,0z M6.8,4h19.8l45.2,103.5l-20-0.2L6.8,4z"/>
	</g>
	<g>
		<path d="M0.8,112l47.8,112h29.9l-49-112H0.8z M6.8,116h19.8l45.2,103.5l-20-0.2L6.8,116z"/>
	</g>
</g>
</svg>
